<?xml version="1.0" encoding="UTF-8" standalone="no"?>
<!-- Created by diasvg.py -->
<svg width="57.493cm" height="31.000cm" viewBox="4.950 23.950 62.443 54.950"
 xmlns="http://www.w3.org/2000/svg"
 xmlns:xlink="http://www.w3.org/1999/xlink">
<line x1="12.000" y1="30.900" x2="12.000" y2="44.000" stroke="#000000" stroke-width="0.100" stroke-dasharray="0.10,0.10"/>
<rect x="5.000" y="24.000" width="4.100" height="3.000" fill="#FFFFFF" stroke="none" stroke-width="0"/>
<rect x="5.000" y="24.000" width="4.100" height="3.000" fill="none" stroke="#FF0000" stroke-width="0.100" />
<text x="7.050" y="25.695"  fill="#000000" text-anchor="middle" font-size="0.80" font-family="sans" font-style="normal" font-weight="400">
Textblock</text>
<rect x="9.000" y="44.000" width="6.000" height="1.900" fill="#FFFFFF" stroke="none" stroke-width="0"/>
<rect x="9.000" y="44.000" width="6.000" height="1.900" fill="none" stroke="#000000" stroke-width="0.100" />
<text x="12.000" y="45.145"  fill="#000000" text-anchor="middle" font-size="0.80" font-family="sans" font-style="normal" font-weight="400">
Paragraph</text>
<line x1="12.000" y1="45.900" x2="12.000" y2="51.000" stroke="#000000" stroke-width="0.100" stroke-dasharray="0.10,0.10"/>
<polyline fill="none" stroke="#000000" stroke-width="0.100"  points="7.050,27.000 7.000,27.000 7.000,29.950 8.726,29.950 "/>
<polyline fill="none" stroke="#000000" stroke-width="0.100"  points="8.338,30.200 8.838,29.950 8.338,29.700 "/>
<rect x="9.000" y="29.000" width="6.000" height="1.900" fill="#FFFFFF" stroke="none" stroke-width="0"/>
<rect x="9.000" y="29.000" width="6.000" height="1.900" fill="none" stroke="#000000" stroke-width="0.100" />
<text x="12.000" y="30.145"  fill="#000000" text-anchor="middle" font-size="0.80" font-family="sans" font-style="normal" font-weight="400">
Paragraph</text>
<polyline fill="none" stroke="#000000" stroke-width="0.100"  points="15.050,29.950 16.500,29.950 16.500,32.950 17.726,32.950 "/>
<polyline fill="none" stroke="#000000" stroke-width="0.100"  points="17.338,33.200 17.838,32.950 17.338,32.700 "/>
<rect x="18.000" y="32.000" width="5.150" height="1.900" fill="#FFFFFF" stroke="none" stroke-width="0"/>
<rect x="18.000" y="32.000" width="5.150" height="1.900" fill="none" stroke="#000000" stroke-width="0.100" />
<text x="20.575" y="33.145"  fill="#000000" text-anchor="middle" font-size="0.80" font-family="sans" font-style="normal" font-weight="400">
Line</text>
<rect x="18.000" y="36.000" width="5.150" height="1.900" fill="#FFFFFF" stroke="none" stroke-width="0"/>
<rect x="18.000" y="36.000" width="5.150" height="1.900" fill="none" stroke="#000000" stroke-width="0.100" />
<text x="20.575" y="37.145"  fill="#000000" text-anchor="middle" font-size="0.80" font-family="sans" font-style="normal" font-weight="400">
Line</text>
<line x1="20.575" y1="35.950" x2="20.575" y2="33.950" stroke="#000000" stroke-width="0.100" stroke-dasharray="0.10,0.10"/>
<rect x="18.000" y="40.000" width="5.150" height="1.900" fill="#FFFFFF" stroke="none" stroke-width="0"/>
<rect x="18.000" y="40.000" width="5.150" height="1.900" fill="none" stroke="#000000" stroke-width="0.100" />
<text x="20.575" y="41.145"  fill="#000000" text-anchor="middle" font-size="0.80" font-family="sans" font-style="normal" font-weight="400">
Line</text>
<line x1="20.575" y1="39.950" x2="20.575" y2="37.950" stroke="#000000" stroke-width="0.100" stroke-dasharray="0.10,0.10"/>
<rect x="26.000" y="32.000" width="5.000" height="1.900" fill="#FFFFFF" stroke="none" stroke-width="0"/>
<rect x="26.000" y="32.000" width="5.000" height="1.900" fill="none" stroke="#000000" stroke-width="0.100" />
<text x="28.500" y="33.145"  fill="#000000" text-anchor="middle" font-size="0.80" font-family="sans" font-style="normal" font-weight="400">
Text Item</text>
<line x1="23.150" y1="32.950" x2="25.776" y2="32.950" stroke="#000000" stroke-width="0.100" />
<polyline fill="none" stroke="#000000" stroke-width="0.100"  points="25.388,33.200 25.888,32.950 25.388,32.700 "/>
<rect x="34.000" y="32.000" width="5.000" height="2.000" fill="#FFFFFF" stroke="none" stroke-width="0"/>
<rect x="34.000" y="32.000" width="5.000" height="2.000" fill="none" stroke="#000000" stroke-width="0.100" />
<text x="36.500" y="33.195"  fill="#000000" text-anchor="middle" font-size="0.80" font-family="sans" font-style="normal" font-weight="400">
Text Item</text>
<line x1="31.049" y1="32.966" x2="33.951" y2="32.984" stroke="#000000" stroke-width="0.100" stroke-dasharray="0.10,0.10"/>
<rect x="42.000" y="32.000" width="5.000" height="2.000" fill="#FFFFFF" stroke="none" stroke-width="0"/>
<rect x="42.000" y="32.000" width="5.000" height="2.000" fill="none" stroke="#000000" stroke-width="0.100" />
<text x="44.500" y="33.195"  fill="#000000" text-anchor="middle" font-size="0.80" font-family="sans" font-style="normal" font-weight="400">
Text Item</text>
<line x1="39.000" y1="33.000" x2="42.000" y2="33.000" stroke="#000000" stroke-width="0.100" stroke-dasharray="0.10,0.10"/>
<rect x="26.000" y="36.000" width="5.000" height="1.900" fill="#FFFFFF" stroke="none" stroke-width="0"/>
<rect x="26.000" y="36.000" width="5.000" height="1.900" fill="none" stroke="#000000" stroke-width="0.100" />
<text x="28.500" y="37.145"  fill="#000000" text-anchor="middle" font-size="0.80" font-family="sans" font-style="normal" font-weight="400">
Text Item</text>
<line x1="23.199" y1="36.950" x2="25.776" y2="36.950" stroke="#000000" stroke-width="0.100" />
<polyline fill="none" stroke="#000000" stroke-width="0.100"  points="25.388,37.200 25.888,36.950 25.388,36.700 "/>
<rect x="34.000" y="36.000" width="5.015" height="1.900" fill="#FFFFFF" stroke="none" stroke-width="0"/>
<rect x="34.000" y="36.000" width="5.015" height="1.900" fill="none" stroke="#000000" stroke-width="0.100" />
<text x="36.508" y="37.145"  fill="#000000" text-anchor="middle" font-size="0.80" font-family="sans" font-style="normal" font-weight="400">
Format Item</text>
<line x1="31.050" y1="36.950" x2="33.950" y2="36.950" stroke="#000000" stroke-width="0.100" stroke-dasharray="0.10,0.10"/>
<rect x="42.000" y="36.000" width="5.000" height="1.900" fill="#FFFFFF" stroke="none" stroke-width="0"/>
<rect x="42.000" y="36.000" width="5.000" height="1.900" fill="none" stroke="#000000" stroke-width="0.100" />
<text x="44.500" y="37.145"  fill="#000000" text-anchor="middle" font-size="0.80" font-family="sans" font-style="normal" font-weight="400">
Text Item</text>
<line x1="39.015" y1="36.950" x2="41.950" y2="36.950" stroke="#000000" stroke-width="0.100" stroke-dasharray="0.10,0.10"/>
<rect x="26.000" y="40.000" width="5.000" height="1.900" fill="#FFFFFF" stroke="none" stroke-width="0"/>
<rect x="26.000" y="40.000" width="5.000" height="1.900" fill="none" stroke="#000000" stroke-width="0.100" />
<text x="28.500" y="41.145"  fill="#000000" text-anchor="middle" font-size="0.80" font-family="sans" font-style="normal" font-weight="400">
Text Item</text>
<line x1="23.199" y1="40.950" x2="25.776" y2="40.950" stroke="#000000" stroke-width="0.100" />
<polyline fill="none" stroke="#000000" stroke-width="0.100"  points="25.388,41.200 25.888,40.950 25.388,40.700 "/>
<line x1="31.050" y1="40.950" x2="34.000" y2="40.950" stroke="#000000" stroke-width="0.100" stroke-dasharray="0.10,0.10"/>
<polyline fill="none" stroke="#000000" stroke-width="0.100"  points="15.050,44.950 16.525,44.950 16.525,46.950 17.776,46.950 "/>
<polyline fill="none" stroke="#000000" stroke-width="0.100"  points="17.388,47.200 17.888,46.950 17.388,46.700 "/>
<rect x="18.000" y="46.000" width="5.150" height="1.900" fill="#FFFFFF" stroke="none" stroke-width="0"/>
<rect x="18.000" y="46.000" width="5.150" height="1.900" fill="none" stroke="#000000" stroke-width="0.100" />
<text x="20.575" y="47.145"  fill="#000000" text-anchor="middle" font-size="0.80" font-family="sans" font-style="normal" font-weight="400">
Line</text>
<line x1="23.200" y1="46.950" x2="25.728" y2="46.950" stroke="#000000" stroke-width="0.100" />
<polyline fill="none" stroke="#000000" stroke-width="0.100"  points="25.340,47.200 25.840,46.950 25.340,46.700 "/>
<rect x="26.000" y="46.000" width="5.000" height="1.900" fill="#FFFFFF" stroke="none" stroke-width="0"/>
<rect x="26.000" y="46.000" width="5.000" height="1.900" fill="none" stroke="#000000" stroke-width="0.100" />
<text x="28.500" y="47.145"  fill="#000000" text-anchor="middle" font-size="0.80" font-family="sans" font-style="normal" font-weight="400">
Item...</text>
<rect x="50.000" y="36.000" width="5.015" height="1.900" fill="#FFFFFF" stroke="none" stroke-width="0"/>
<rect x="50.000" y="36.000" width="5.015" height="1.900" fill="none" stroke="#000000" stroke-width="0.100" />
<text x="52.508" y="37.145"  fill="#000000" text-anchor="middle" font-size="0.80" font-family="sans" font-style="normal" font-weight="400">
Format Item</text>
<line x1="47.000" y1="36.950" x2="50.000" y2="36.950" stroke="#000000" stroke-width="0.100" stroke-dasharray="0.10,0.10"/>
<rect x="34.000" y="40.000" width="5.015" height="1.900" fill="#FFFFFF" stroke="none" stroke-width="0"/>
<rect x="34.000" y="40.000" width="5.015" height="1.900" fill="none" stroke="#000000" stroke-width="0.100" />
<text x="36.508" y="41.145"  fill="#000000" text-anchor="middle" font-size="0.80" font-family="sans" font-style="normal" font-weight="400">
Format Item</text>
<rect x="9.000" y="51.000" width="6.000" height="1.900" fill="#FFFFFF" stroke="none" stroke-width="0"/>
<rect x="9.000" y="51.000" width="6.000" height="1.900" fill="none" stroke="#000000" stroke-width="0.100" />
<text x="12.000" y="52.145"  fill="#000000" text-anchor="middle" font-size="0.80" font-family="sans" font-style="normal" font-weight="400">
Paragraph</text>
<polyline fill="none" stroke="#000000" stroke-width="0.100"  points="15.000,51.950 16.500,51.950 16.500,53.950 17.776,53.950 "/>
<polyline fill="none" stroke="#000000" stroke-width="0.100"  points="17.388,54.200 17.888,53.950 17.388,53.700 "/>
<rect x="18.000" y="53.000" width="5.150" height="1.900" fill="#FFFFFF" stroke="none" stroke-width="0"/>
<rect x="18.000" y="53.000" width="5.150" height="1.900" fill="none" stroke="#000000" stroke-width="0.100" />
<text x="20.575" y="54.145"  fill="#000000" text-anchor="middle" font-size="0.80" font-family="sans" font-style="normal" font-weight="400">
Line</text>
<line x1="23.200" y1="53.950" x2="25.728" y2="53.950" stroke="#000000" stroke-width="0.100" />
<polyline fill="none" stroke="#000000" stroke-width="0.100"  points="25.340,54.200 25.840,53.950 25.340,53.700 "/>
<rect x="26.000" y="53.000" width="5.000" height="1.900" fill="#FFFFFF" stroke="none" stroke-width="0"/>
<rect x="26.000" y="53.000" width="5.000" height="1.900" fill="none" stroke="#000000" stroke-width="0.100" />
<text x="28.500" y="54.145"  fill="#000000" text-anchor="middle" font-size="0.80" font-family="sans" font-style="normal" font-weight="400">
Item...</text>
<text x="48.000" y="33.000"  fill="#FF0000" text-anchor="start" font-size="1.27" font-family="sans" font-style="normal" font-weight="400">
text wrapping</text>
<text x="35.000" y="39.000"  fill="#FF0000" text-anchor="start" font-size="0.85" font-family="sans" font-style="normal" font-weight="400">
&lt;tab&gt;</text>
<text x="35.000" y="43.000"  fill="#FF0000" text-anchor="start" font-size="0.85" font-family="sans" font-style="normal" font-weight="400">
&lt;pr&gt;</text>
<text x="40.000" y="41.000"  fill="#FF0000" text-anchor="start" font-size="1.27" font-family="sans" font-style="normal" font-weight="400">
paragraph</text>
<text x="40.000" y="42.273"  fill="#FF0000" text-anchor="start" font-size="1.27" font-family="sans" font-style="normal" font-weight="400">
separator</text>
<text x="56.000" y="37.000"  fill="#FF0000" text-anchor="start" font-size="1.27" font-family="sans" font-style="normal" font-weight="400">
newline</text>
<text x="51.000" y="39.000"  fill="#FF0000" text-anchor="start" font-size="0.85" font-family="sans" font-style="normal" font-weight="400">
&lt;br&gt;</text>
<text x="61.318" y="36.844"  fill="#000000" text-anchor="start" font-size="0.99" font-family="sans" font-style="normal" font-weight="400">
(1)</text>
</svg>