<?xml version="1.0" encoding="UTF-8" standalone="no"?>
<!-- Created by diasvg.py -->
<svg width="57.393cm" height="31.000cm" viewBox="0.150 21.100 57.543 52.100"
 xmlns="http://www.w3.org/2000/svg"
 xmlns:xlink="http://www.w3.org/1999/xlink">
<line x1="7.200" y1="28.050" x2="7.200" y2="41.150" stroke="#000000" stroke-width="0.100" stroke-dasharray="0.10,0.10"/>
<rect x="0.200" y="21.150" width="4.100" height="3.000" fill="#FFFFFF" stroke="none" stroke-width="0"/>
<rect x="0.200" y="21.150" width="4.100" height="3.000" fill="none" stroke="#FF0000" stroke-width="0.100" />
<text x="2.250" y="22.845"  fill="#000000" text-anchor="middle" font-size="0.80" font-family="sans" font-style="normal" font-weight="400">
Textblock</text>
<rect x="4.200" y="41.150" width="6.000" height="1.900" fill="#FFFFFF" stroke="none" stroke-width="0"/>
<rect x="4.200" y="41.150" width="6.000" height="1.900" fill="none" stroke="#000000" stroke-width="0.100" />
<text x="7.200" y="42.295"  fill="#000000" text-anchor="middle" font-size="0.80" font-family="sans" font-style="normal" font-weight="400">
Paragraph</text>
<line x1="7.200" y1="43.050" x2="7.200" y2="48.150" stroke="#000000" stroke-width="0.100" stroke-dasharray="0.10,0.10"/>
<polyline fill="none" stroke="#000000" stroke-width="0.100"  points="2.250,24.150 2.200,24.150 2.200,27.100 3.926,27.100 "/>
<polyline fill="none" stroke="#000000" stroke-width="0.100"  points="3.538,27.350 4.038,27.100 3.538,26.850 "/>
<rect x="4.200" y="26.150" width="6.000" height="1.900" fill="#FFFFFF" stroke="none" stroke-width="0"/>
<rect x="4.200" y="26.150" width="6.000" height="1.900" fill="none" stroke="#000000" stroke-width="0.100" />
<text x="7.200" y="27.295"  fill="#000000" text-anchor="middle" font-size="0.80" font-family="sans" font-style="normal" font-weight="400">
Paragraph</text>
<polyline fill="none" stroke="#000000" stroke-width="0.100"  points="10.250,27.100 11.700,27.100 11.700,30.100 12.926,30.100 "/>
<polyline fill="none" stroke="#000000" stroke-width="0.100"  points="12.538,30.350 13.038,30.100 12.538,29.850 "/>
<rect x="13.200" y="29.150" width="5.150" height="1.900" fill="#FFFFFF" stroke="none" stroke-width="0"/>
<rect x="13.200" y="29.150" width="5.150" height="1.900" fill="none" stroke="#000000" stroke-width="0.100" />
<text x="15.775" y="30.295"  fill="#000000" text-anchor="middle" font-size="0.80" font-family="sans" font-style="normal" font-weight="400">
Line</text>
<rect x="13.200" y="33.150" width="5.150" height="1.900" fill="#FFFFFF" stroke="none" stroke-width="0"/>
<rect x="13.200" y="33.150" width="5.150" height="1.900" fill="none" stroke="#000000" stroke-width="0.100" />
<text x="15.775" y="34.295"  fill="#000000" text-anchor="middle" font-size="0.80" font-family="sans" font-style="normal" font-weight="400">
Line</text>
<line x1="15.775" y1="33.100" x2="15.775" y2="31.100" stroke="#000000" stroke-width="0.100" stroke-dasharray="0.10,0.10"/>
<rect x="13.200" y="37.150" width="5.150" height="1.900" fill="#FFFFFF" stroke="none" stroke-width="0"/>
<rect x="13.200" y="37.150" width="5.150" height="1.900" fill="none" stroke="#000000" stroke-width="0.100" />
<text x="15.775" y="38.295"  fill="#000000" text-anchor="middle" font-size="0.80" font-family="sans" font-style="normal" font-weight="400">
Line</text>
<line x1="15.775" y1="37.100" x2="15.775" y2="35.100" stroke="#000000" stroke-width="0.100" stroke-dasharray="0.10,0.10"/>
<rect x="21.200" y="29.150" width="5.000" height="1.900" fill="#FFFFFF" stroke="none" stroke-width="0"/>
<rect x="21.200" y="29.150" width="5.000" height="1.900" fill="none" stroke="#000000" stroke-width="0.100" />
<text x="23.700" y="30.295"  fill="#000000" text-anchor="middle" font-size="0.80" font-family="sans" font-style="normal" font-weight="400">
Text Item</text>
<line x1="18.350" y1="30.100" x2="20.976" y2="30.100" stroke="#000000" stroke-width="0.100" />
<polyline fill="none" stroke="#000000" stroke-width="0.100"  points="20.588,30.350 21.088,30.100 20.588,29.850 "/>
<rect x="29.200" y="29.150" width="5.000" height="2.000" fill="#FFFFFF" stroke="none" stroke-width="0"/>
<rect x="29.200" y="29.150" width="5.000" height="2.000" fill="none" stroke="#000000" stroke-width="0.100" />
<text x="31.700" y="30.345"  fill="#000000" text-anchor="middle" font-size="0.80" font-family="sans" font-style="normal" font-weight="400">
Text Item</text>
<line x1="26.249" y1="30.116" x2="29.151" y2="30.134" stroke="#000000" stroke-width="0.100" stroke-dasharray="0.10,0.10"/>
<rect x="37.200" y="29.150" width="5.000" height="2.000" fill="#FFFFFF" stroke="none" stroke-width="0"/>
<rect x="37.200" y="29.150" width="5.000" height="2.000" fill="none" stroke="#000000" stroke-width="0.100" />
<text x="39.700" y="30.345"  fill="#000000" text-anchor="middle" font-size="0.80" font-family="sans" font-style="normal" font-weight="400">
Text Item</text>
<line x1="34.200" y1="30.150" x2="37.200" y2="30.150" stroke="#000000" stroke-width="0.100" stroke-dasharray="0.10,0.10"/>
<rect x="21.200" y="33.150" width="5.000" height="1.900" fill="#FFFFFF" stroke="none" stroke-width="0"/>
<rect x="21.200" y="33.150" width="5.000" height="1.900" fill="none" stroke="#000000" stroke-width="0.100" />
<text x="23.700" y="34.295"  fill="#000000" text-anchor="middle" font-size="0.80" font-family="sans" font-style="normal" font-weight="400">
Text Item</text>
<line x1="18.399" y1="34.100" x2="20.976" y2="34.100" stroke="#000000" stroke-width="0.100" />
<polyline fill="none" stroke="#000000" stroke-width="0.100"  points="20.588,34.350 21.088,34.100 20.588,33.850 "/>
<rect x="29.200" y="33.150" width="5.015" height="1.900" fill="#FFFFFF" stroke="none" stroke-width="0"/>
<rect x="29.200" y="33.150" width="5.015" height="1.900" fill="none" stroke="#000000" stroke-width="0.100" />
<text x="31.707" y="34.295"  fill="#000000" text-anchor="middle" font-size="0.80" font-family="sans" font-style="normal" font-weight="400">
Format Item</text>
<line x1="26.250" y1="34.100" x2="29.150" y2="34.100" stroke="#000000" stroke-width="0.100" stroke-dasharray="0.10,0.10"/>
<rect x="37.200" y="33.150" width="5.000" height="1.900" fill="#FFFFFF" stroke="none" stroke-width="0"/>
<rect x="37.200" y="33.150" width="5.000" height="1.900" fill="none" stroke="#000000" stroke-width="0.100" />
<text x="39.700" y="34.295"  fill="#000000" text-anchor="middle" font-size="0.80" font-family="sans" font-style="normal" font-weight="400">
Text Item</text>
<line x1="34.215" y1="34.100" x2="37.150" y2="34.100" stroke="#000000" stroke-width="0.100" stroke-dasharray="0.10,0.10"/>
<rect x="21.200" y="37.150" width="5.000" height="1.900" fill="#FFFFFF" stroke="none" stroke-width="0"/>
<rect x="21.200" y="37.150" width="5.000" height="1.900" fill="none" stroke="#000000" stroke-width="0.100" />
<text x="23.700" y="38.295"  fill="#000000" text-anchor="middle" font-size="0.80" font-family="sans" font-style="normal" font-weight="400">
Text Item</text>
<line x1="18.399" y1="38.100" x2="20.976" y2="38.100" stroke="#000000" stroke-width="0.100" />
<polyline fill="none" stroke="#000000" stroke-width="0.100"  points="20.588,38.350 21.088,38.100 20.588,37.850 "/>
<line x1="26.250" y1="38.100" x2="29.200" y2="38.100" stroke="#000000" stroke-width="0.100" stroke-dasharray="0.10,0.10"/>
<polyline fill="none" stroke="#000000" stroke-width="0.100"  points="10.250,42.100 11.725,42.100 11.725,44.100 12.976,44.100 "/>
<polyline fill="none" stroke="#000000" stroke-width="0.100"  points="12.588,44.350 13.088,44.100 12.588,43.850 "/>
<rect x="13.200" y="43.150" width="5.150" height="1.900" fill="#FFFFFF" stroke="none" stroke-width="0"/>
<rect x="13.200" y="43.150" width="5.150" height="1.900" fill="none" stroke="#000000" stroke-width="0.100" />
<text x="15.775" y="44.295"  fill="#000000" text-anchor="middle" font-size="0.80" font-family="sans" font-style="normal" font-weight="400">
Line</text>
<line x1="18.400" y1="44.100" x2="20.928" y2="44.100" stroke="#000000" stroke-width="0.100" />
<polyline fill="none" stroke="#000000" stroke-width="0.100"  points="20.540,44.350 21.040,44.100 20.540,43.850 "/>
<rect x="21.200" y="43.150" width="5.000" height="1.900" fill="#FFFFFF" stroke="none" stroke-width="0"/>
<rect x="21.200" y="43.150" width="5.000" height="1.900" fill="none" stroke="#000000" stroke-width="0.100" />
<text x="23.700" y="44.295"  fill="#000000" text-anchor="middle" font-size="0.80" font-family="sans" font-style="normal" font-weight="400">
Item...</text>
<rect x="45.200" y="33.150" width="5.015" height="1.900" fill="#FFFFFF" stroke="none" stroke-width="0"/>
<rect x="45.200" y="33.150" width="5.015" height="1.900" fill="none" stroke="#000000" stroke-width="0.100" />
<text x="47.708" y="34.295"  fill="#000000" text-anchor="middle" font-size="0.80" font-family="sans" font-style="normal" font-weight="400">
Format Item</text>
<line x1="42.200" y1="34.100" x2="45.200" y2="34.100" stroke="#000000" stroke-width="0.100" stroke-dasharray="0.10,0.10"/>
<rect x="29.200" y="37.150" width="5.015" height="1.900" fill="#FFFFFF" stroke="none" stroke-width="0"/>
<rect x="29.200" y="37.150" width="5.015" height="1.900" fill="none" stroke="#000000" stroke-width="0.100" />
<text x="31.707" y="38.295"  fill="#000000" text-anchor="middle" font-size="0.80" font-family="sans" font-style="normal" font-weight="400">
Format Item</text>
<rect x="4.200" y="48.150" width="6.000" height="1.900" fill="#FFFFFF" stroke="none" stroke-width="0"/>
<rect x="4.200" y="48.150" width="6.000" height="1.900" fill="none" stroke="#000000" stroke-width="0.100" />
<text x="7.200" y="49.295"  fill="#000000" text-anchor="middle" font-size="0.80" font-family="sans" font-style="normal" font-weight="400">
Paragraph</text>
<polyline fill="none" stroke="#000000" stroke-width="0.100"  points="10.200,49.100 11.700,49.100 11.700,51.100 12.976,51.100 "/>
<polyline fill="none" stroke="#000000" stroke-width="0.100"  points="12.588,51.350 13.088,51.100 12.588,50.850 "/>
<rect x="13.200" y="50.150" width="5.150" height="1.900" fill="#FFFFFF" stroke="none" stroke-width="0"/>
<rect x="13.200" y="50.150" width="5.150" height="1.900" fill="none" stroke="#000000" stroke-width="0.100" />
<text x="15.775" y="51.295"  fill="#000000" text-anchor="middle" font-size="0.80" font-family="sans" font-style="normal" font-weight="400">
Line</text>
<line x1="18.400" y1="51.100" x2="20.928" y2="51.100" stroke="#000000" stroke-width="0.100" />
<polyline fill="none" stroke="#000000" stroke-width="0.100"  points="20.540,51.350 21.040,51.100 20.540,50.850 "/>
<rect x="21.200" y="50.150" width="5.000" height="1.900" fill="#FFFFFF" stroke="none" stroke-width="0"/>
<rect x="21.200" y="50.150" width="5.000" height="1.900" fill="none" stroke="#000000" stroke-width="0.100" />
<text x="23.700" y="51.295"  fill="#000000" text-anchor="middle" font-size="0.80" font-family="sans" font-style="normal" font-weight="400">
Item...</text>
<text x="43.200" y="30.150"  fill="#FF0000" text-anchor="start" font-size="1.27" font-family="sans" font-style="normal" font-weight="400">
text wrapping</text>
<text x="30.200" y="36.150"  fill="#FF0000" text-anchor="start" font-size="0.85" font-family="sans" font-style="normal" font-weight="400">
&lt;tab&gt;</text>
<text x="30.200" y="40.150"  fill="#FF0000" text-anchor="start" font-size="0.85" font-family="sans" font-style="normal" font-weight="400">
&lt;pr&gt;</text>
<text x="35.200" y="38.150"  fill="#FF0000" text-anchor="start" font-size="1.27" font-family="sans" font-style="normal" font-weight="400">
paragraph</text>
<text x="35.200" y="39.423"  fill="#FF0000" text-anchor="start" font-size="1.27" font-family="sans" font-style="normal" font-weight="400">
separator</text>
<text x="51.200" y="34.150"  fill="#FF0000" text-anchor="start" font-size="1.27" font-family="sans" font-style="normal" font-weight="400">
newline</text>
<text x="46.200" y="36.150"  fill="#FF0000" text-anchor="start" font-size="0.85" font-family="sans" font-style="normal" font-weight="400">
&lt;br&gt;</text>
<text x="56.418" y="37.044"  fill="#000000" text-anchor="start" font-size="0.99" font-family="sans" font-style="normal" font-weight="400">
(1)</text>
</svg>